<?xml version="1.0" encoding="utf-8"?>
<!-- Generator: Adobe Illustrator 23.0.3, SVG Export Plug-In . SVG Version: 6.00 Build 0)  -->
<svg version="1.1" id="Layer_1" xmlns="http://www.w3.org/2000/svg" xmlns:xlink="http://www.w3.org/1999/xlink" x="0px" y="0px"
	 viewBox="0 0 1456.3 339.2" style="enable-background:new 0 0 1456.3 339.2;" xml:space="preserve">
<style type="text/css">
	.st0{fill:#337DC1;}
</style>
<g>
	<g>
		<path class="st0" d="M517.6,200c0-5.2-1.8-9.4-5.5-12.5c-3.7-3.2-10.1-6.1-19.3-8.9c-16.1-4.6-28.2-10.1-36.4-16.5
			c-8.2-6.4-12.3-15.1-12.3-26.1s4.7-20.1,14.1-27.1c9.4-7,21.5-10.5,36.1-10.5c14.8,0,26.9,3.9,36.2,11.8
			c9.3,7.9,13.8,17.6,13.5,29.2l-0.2,0.6h-26.2c0-6.2-2.1-11.3-6.3-15.2c-4.2-3.9-10-5.8-17.6-5.8c-7.2,0-12.8,1.6-16.8,4.8
			c-4,3.2-5.9,7.3-5.9,12.3c0,4.6,2.1,8.3,6.3,11.3c4.2,2.9,11.5,6,21.9,9.3c14.9,4.1,26.2,9.6,33.8,16.4
			c7.7,6.8,11.5,15.7,11.5,26.8c0,11.6-4.6,20.7-13.7,27.3c-9.1,6.7-21.2,10-36.1,10c-14.7,0-27.5-3.8-38.5-11.4
			s-16.3-18.2-15.9-31.8l0.2-0.6H467c0,8,2.5,13.9,7.4,17.7c4.9,3.7,11.8,5.6,20.5,5.6c7.4,0,13-1.5,16.9-4.5
			C515.7,209.1,517.6,205,517.6,200z"/>
		<path class="st0" d="M595.3,193.1l1.1,5.6h0.6l19.2-63.8h29.1l-40.7,115.3c-2.8,7.2-6.7,13.2-11.6,18.1c-4.9,4.9-12.2,7.4-22,7.4
			c-2.3,0-4.4-0.2-6.4-0.6c-1.9-0.4-4.3-0.9-7.1-1.6l3.2-19.7c0.8,0.1,1.7,0.2,2.6,0.4c0.9,0.1,1.8,0.2,2.5,0.2
			c4.4,0,7.9-1.1,10.3-3.3c2.4-2.2,4.3-4.9,5.6-8.2l3.1-7.8l-35.6-100.2h29.1L595.3,193.1z"/>
		<path class="st0" d="M677.1,134.9l1.2,14.4c3.3-5.1,7.4-9.1,12.3-12c4.9-2.8,10.4-4.3,16.4-4.3c10.1,0,18,3.2,23.7,9.6
			c5.7,6.4,8.5,16.4,8.5,29.9v62.7h-27.2v-62.7c0-6.8-1.4-11.5-4.1-14.4c-2.7-2.8-6.8-4.2-12.3-4.2c-3.6,0-6.8,0.7-9.6,2.2
			c-2.8,1.5-5.2,3.5-7.1,6.2v72.9h-27.1V134.9H677.1z"/>
		<path class="st0" d="M797.8,216.3c4.8,0,8.7-1.4,11.6-4.2c2.9-2.8,4.4-6.5,4.4-11.2h24.6l0.3,0.6c0.2,10.1-3.6,18.6-11.4,25.4
			c-7.9,6.8-17.7,10.3-29.3,10.3c-15,0-26.5-4.7-34.6-14.2c-8.1-9.5-12.1-21.6-12.1-36.4v-2.8c0-14.8,4-26.9,12.1-36.4
			c8.1-9.5,19.6-14.3,34.5-14.3c12.4,0,22.3,3.5,29.9,10.6c7.6,7,11.2,16.3,11,27.8l-0.2,0.6h-24.7c0-5.2-1.4-9.5-4.3-12.9
			c-2.8-3.4-6.8-5.1-11.8-5.1c-7.2,0-12.2,2.8-15.2,8.3c-2.9,5.5-4.4,12.7-4.4,21.5v2.8c0,9,1.5,16.2,4.4,21.6
			S790.6,216.3,797.8,216.3z"/>
		<path class="st0" d="M941.1,235.2H849v-17.7l43.7-46.8c6.3-7.2,10.8-13.3,13.4-18.3c2.7-5,4-9.6,4-13.9c0-5.7-1.5-10.3-4.6-14
			c-3.1-3.6-7.4-5.4-13-5.4c-6.2,0-11,2.1-14.2,6.4c-3.2,4.2-4.9,9.9-4.9,16.9H847l-0.2-0.6c-0.3-12.2,3.7-22.5,12-30.9
			c8.3-8.4,19.5-12.7,33.6-12.7c13.9,0,24.8,3.6,32.8,10.8c7.9,7.2,11.9,16.9,11.9,28.9c0,8.2-2.2,15.7-6.7,22.6
			c-4.5,6.9-11.9,15.9-22.2,27.1l-24,26.1l0.2,0.5h56.7V235.2z"/>
		<path class="st0" d="M1102.9,189.2l0.2,0.6c0.2,14.5-4.2,26.1-13.3,34.6c-9.1,8.5-21.8,12.8-38,12.8c-16.3,0-29.5-5.2-39.6-15.7
			c-10.1-10.4-15.2-23.9-15.2-40.3v-26.8c0-16.4,4.9-29.8,14.8-40.3c9.9-10.5,22.7-15.8,38.6-15.8c16.7,0,29.7,4.3,39.1,12.8
			c9.4,8.6,14,20.2,13.7,35l-0.2,0.6h-26.3c0-8.9-2.1-15.7-6.4-20.4c-4.3-4.7-10.9-7.1-19.9-7.1c-8.1,0-14.5,3.3-19.3,9.9
			c-4.8,6.6-7.1,15-7.1,25.1v27c0,10.3,2.5,18.8,7.5,25.3c5,6.6,11.8,9.9,20.3,9.9c8.5,0,14.7-2.3,18.8-6.8c4-4.5,6.1-11.3,6.1-20.3
			H1102.9z"/>
		<path class="st0" d="M1144.8,235.2h-27.1V90.6h27.1V235.2z"/>
		<path class="st0" d="M1159.1,184.1c0-15,4.2-27.2,12.5-36.8c8.3-9.5,19.9-14.3,34.7-14.3c14.8,0,26.5,4.8,34.9,14.3
			c8.4,9.5,12.6,21.8,12.6,36.8v1.9c0,15.1-4.2,27.4-12.6,36.9c-8.4,9.5-19.9,14.2-34.7,14.2c-14.8,0-26.4-4.7-34.8-14.2
			c-8.4-9.5-12.6-21.8-12.6-36.9V184.1z M1186.1,186c0,9.1,1.6,16.5,4.8,22c3.2,5.5,8.4,8.3,15.6,8.3c7,0,12.1-2.8,15.3-8.3
			c3.2-5.5,4.9-12.9,4.9-21.9v-1.9c0-8.9-1.6-16.1-4.9-21.8c-3.3-5.6-8.4-8.4-15.5-8.4c-7,0-12.1,2.8-15.3,8.5
			c-3.2,5.6-4.9,12.9-4.9,21.7V186z"/>
		<path class="st0" d="M1327.9,220.7c-3.1,5.3-7,9.3-11.8,12.1c-4.8,2.8-10.2,4.3-16.4,4.3c-10.6,0-18.8-3.4-24.8-10.2
			c-6-6.8-8.9-17.3-8.9-31.6v-60.5h27v60.9c0,7.3,1.2,12.6,3.7,15.7c2.5,3.2,6.1,4.8,10.9,4.8c4.3,0,8-0.7,11.1-2.1
			c3.1-1.4,5.6-3.5,7.6-6.2v-73.1h27.1v100.3h-23.1L1327.9,220.7z"/>
		<path class="st0" d="M1365.9,185.9c0-15.8,3.4-28.6,10.2-38.3c6.8-9.7,16.5-14.6,28.9-14.6c5,0,9.5,1.1,13.5,3.2s7.5,5.3,10.6,9.3
			v-55h27.2v144.6H1433l-2.2-12.2c-3.2,4.6-6.9,8.2-11.2,10.6c-4.3,2.4-9.2,3.6-14.8,3.6c-12.3,0-21.9-4.5-28.7-13.5
			c-6.8-9-10.2-21-10.2-35.8V185.9z M1392.8,187.8c0,8.8,1.5,15.8,4.4,20.8c3,5.1,7.8,7.6,14.5,7.6c3.9,0,7.3-0.8,10.2-2.4
			c2.9-1.6,5.3-3.9,7.1-6.9v-43c-1.9-3.2-4.2-5.6-7.1-7.4c-2.9-1.8-6.2-2.7-10.1-2.7c-6.6,0-11.4,3-14.5,8.9
			c-3.1,5.9-4.6,13.6-4.6,23.1V187.8z"/>
	</g>
	<g>
		<path class="st0" d="M373.3,286.6l0-0.3c0.4-2,0.6-4,0.6-6l0-0.6l0-1c0-0.2,0-0.5-0.1-0.8l-0.1-0.6c-0.2-1.7-0.5-3.4-0.8-4.9
			c-0.2-1.1-0.5-2.1-0.9-3.1c0-0.1-0.1-0.2-0.1-0.3c-3.9-10.8-14-18.6-26-19.1c2.2-3.4,3.7-7.3,4.3-11.4c0.1-1.2,0.2-2.4,0.2-3.7
			c0-2.7-0.3-5.3-0.8-7.8c-3.2-12.5-14.5-21.7-28-21.7c-7.7,0-14.7,3-19.9,8l-4.7-6.6c-9-12.6-22.5-19.9-36.8-19.9
			c-23.2,0-43.3,19.4-46.7,45.2l-1.1,8l-8,1.1c-15.1,2-26.5,16.6-26.5,33.9v0.2c-0.1,4,0.2,7.7,0.8,11c1.8,7.7,5.2,13.8,10,18.5
			c13.6,11.6,40.1,13.3,66.9,13.3h0c4.8,0,9.5,0,14.2-0.1c4.7,0,9.4-0.1,14-0.1C335.6,317.9,368.7,312.7,373.3,286.6z"/>
		<g>
			<path class="st0" d="M169.7,0C74.7,1.3-0.1,75.3,0,169.8C0.1,265,75.6,338.4,168,339.2c0.9,0,1.8,0,2.6-0.1l-0.1,0h53.7
				c1.4,0,1.9-0.6,1.9-0.8c0-0.1,0,0.1,0,0c-7-0.7-15.7-1.9-22.2-3.5c-0.6-0.2-1.3-0.3-1.9-0.5c-0.8-0.2-1.6-0.4-2.3-0.7
				c-0.8-0.2-1.6-0.5-2.4-0.7c-0.7-0.2-1.4-0.4-2-0.7c-9.1-3.2-17.3-7.7-23.7-14.4c-8.7-8.9-13.6-20.7-14.6-35
				c-26.5-2.9-52.9-15.3-74-38.7c-8.9,8.9-17.7,17.8-27.1,27.2v-79.8h79c-8.7,8.5-17.4,17-26.3,25.7c13.8,18.2,34.1,28.9,55.1,30.2
				c6.5-12.3,17.3-21.6,30.3-25.6c7.6-32.5,35-56.2,66.3-56.2c18.4,0,34.6,6.8,47.3,20.8c4.5-1.6,10.3-1.8,15.1-1.8
				c5.6-0.1,10.8,0.9,15.6,2.8c0.6-5.8,0.9-11.8,0.9-17.8C338.9,73,263.3,1.6,169.7,0z M282.4,147.4h-78.6
				c8.5-8.4,17.3-17.2,26-25.8C214,100,183.9,88.2,156.4,93c-31.3,5.4-62.7,31.2-65.1,76.3H56.1c-1.9-31.2,16.2-76,58.6-99.5
				c40.9-22.6,100-19.7,140.5,24.6c9-9.1,17.7-18,27.1-27.6V147.4z"/>
		</g>
	</g>
</g>
</svg>
